<svg width="25" height="18" viewBox="0 0 25 18" fill="none" xmlns="http://www.w3.org/2000/svg">
<g clip-path="url(#clip0_334_173)">
<path d="M20.5529 1.60268C19.0719 0.923136 17.4838 0.422474 15.8232 0.135724C15.793 0.13019 15.7628 0.14402 15.7472 0.171681C15.543 0.534958 15.3167 1.00888 15.1583 1.38138C13.3723 1.114 11.5955 1.114 9.84609 1.38138C9.68763 1.0006 9.45317 0.534958 9.248 0.171681C9.23242 0.144943 9.20222 0.131113 9.17198 0.135724C7.51238 0.421558 5.92422 0.92222 4.4423 1.60268C4.42947 1.60822 4.41847 1.61744 4.41117 1.62942C1.39877 6.12988 0.573553 10.5197 0.978379 14.8551C0.980211 14.8763 0.992117 14.8966 1.0086 14.9095C2.9961 16.3691 4.92133 17.2552 6.8108 17.8425C6.84104 17.8517 6.87308 17.8407 6.89233 17.8158C7.33928 17.2054 7.7377 16.5618 8.07931 15.885C8.09947 15.8454 8.08023 15.7984 8.03902 15.7827C7.40706 15.543 6.8053 15.2507 6.22646 14.9188C6.18067 14.892 6.17701 14.8265 6.21913 14.7952C6.34094 14.7039 6.46278 14.6089 6.57909 14.513C6.60014 14.4955 6.62946 14.4918 6.6542 14.5029C10.457 16.2391 14.5739 16.2391 18.3318 14.5029C18.3566 14.4909 18.3859 14.4946 18.4079 14.5121C18.5242 14.608 18.646 14.7039 18.7688 14.7952C18.8109 14.8265 18.8081 14.892 18.7623 14.9188C18.1835 15.2571 17.5817 15.543 16.9489 15.7818C16.9077 15.7975 16.8893 15.8454 16.9095 15.885C17.2584 16.5609 17.6568 17.2045 18.0956 17.8149C18.1139 17.8407 18.1468 17.8517 18.1771 17.8425C20.0757 17.2552 22.0009 16.3691 23.9884 14.9095C24.0058 14.8966 24.0168 14.8773 24.0187 14.8561C24.5032 9.84384 23.2072 5.49 20.5831 1.63034C20.5767 1.61744 20.5657 1.60822 20.5529 1.60268ZM8.64719 12.2153C7.5023 12.2153 6.55893 11.1642 6.55893 9.87336C6.55893 8.5825 7.484 7.53139 8.64719 7.53139C9.81952 7.53139 10.7538 8.59172 10.7354 9.87336C10.7354 11.1642 9.81035 12.2153 8.64719 12.2153ZM16.3682 12.2153C15.2233 12.2153 14.28 11.1642 14.28 9.87336C14.28 8.5825 15.205 7.53139 16.3682 7.53139C17.5405 7.53139 18.4747 8.59172 18.4564 9.87336C18.4564 11.1642 17.5405 12.2153 16.3682 12.2153Z" fill="white"/>
</g>
<defs>
<clipPath id="clip0_334_173">
<rect width="23.2364" height="18" fill="white" transform="translate(0.882355)"/>
</clipPath>
</defs>
</svg>
