<svg width="24" height="24" viewBox="0 0 24 24" fill="none" xmlns="http://www.w3.org/2000/svg">
<path d="M12 1.76001C9.21895 1.76001 8.87024 1.7718 7.77803 1.82163C6.68811 1.87138 5.94373 2.04446 5.29235 2.29761C4.61898 2.5593 4.04793 2.90944 3.47866 3.47871C2.90939 4.04798 2.55925 4.61904 2.29756 5.29241C2.04441 5.94375 1.87133 6.68812 1.82158 7.77805C1.77174 8.87025 1.75999 9.21897 1.75999 12C1.75999 14.781 1.77174 15.1297 1.82158 16.2219C1.87133 17.3118 2.04441 18.0562 2.29756 18.7075C2.55925 19.3809 2.90939 19.952 3.47866 20.5213C4.04793 21.0905 4.61898 21.4407 5.29235 21.7024C5.94373 21.9555 6.68811 22.1286 7.77803 22.1783C8.87024 22.2281 9.21895 22.2399 12 22.2399C14.781 22.2399 15.1297 22.2281 16.2219 22.1783C17.3118 22.1286 18.0562 21.9555 18.7075 21.7024C19.3809 21.4407 19.952 21.0905 20.5213 20.5213C21.0905 19.952 21.4407 19.3809 21.7024 18.7075C21.9555 18.0562 22.1286 17.3118 22.1783 16.2219C22.2281 15.1297 22.2399 14.781 22.2399 12C22.2399 9.21897 22.2281 8.87025 22.1783 7.77805C22.1286 6.68812 21.9555 5.94375 21.7024 5.29241C21.4407 4.61904 21.0905 4.04798 20.5213 3.47871C19.952 2.90944 19.3809 2.5593 18.7075 2.29761C18.0562 2.04446 17.3118 1.87138 16.2219 1.82163C15.1297 1.7718 14.781 1.76001 12 1.76001ZM12 3.60509C14.7341 3.60509 15.058 3.61549 16.1378 3.66476C17.1362 3.71032 17.6784 3.87714 18.0392 4.01733C18.5172 4.20309 18.8583 4.42503 19.2166 4.78334C19.5749 5.14165 19.7968 5.4828 19.9826 5.96074C20.1228 6.32156 20.2897 6.86376 20.3352 7.86215C20.3844 8.94191 20.3949 9.26579 20.3949 12C20.3949 14.7342 20.3844 15.058 20.3352 16.1378C20.2897 17.1362 20.1228 17.6784 19.9826 18.0392C19.7968 18.5172 19.5749 18.8583 19.2166 19.2166C18.8583 19.575 18.5172 19.7969 18.0392 19.9826C17.6784 20.1228 17.1362 20.2897 16.1378 20.3352C15.0582 20.3845 14.7343 20.3949 12 20.3949C9.26557 20.3949 8.94178 20.3845 7.86213 20.3352C6.86375 20.2897 6.32155 20.1228 5.96072 19.9826C5.48275 19.7969 5.14163 19.575 4.78328 19.2166C4.42497 18.8583 4.20304 18.5172 4.01732 18.0392C3.87708 17.6784 3.71027 17.1362 3.6647 16.1378C3.61544 15.058 3.60503 14.7342 3.60503 12C3.60503 9.26579 3.61544 8.94191 3.6647 7.86215C3.71027 6.86376 3.87708 6.32156 4.01732 5.96074C4.20304 5.4828 4.42497 5.14165 4.78328 4.78334C5.14163 4.42503 5.48275 4.20309 5.96072 4.01733C6.32155 3.87714 6.86375 3.71032 7.86213 3.66476C8.9419 3.61549 9.26578 3.60509 12 3.60509Z" fill="white"/>
<path d="M12 15.4133C10.1148 15.4133 8.58662 13.8851 8.58662 12C8.58662 10.1149 10.1148 8.58667 12 8.58667C13.8851 8.58667 15.4133 10.1149 15.4133 12C15.4133 13.8851 13.8851 15.4133 12 15.4133ZM12 6.74164C9.09581 6.74164 6.74158 9.09587 6.74158 12C6.74158 14.9041 9.09581 17.2584 12 17.2584C14.9041 17.2584 17.2583 14.9041 17.2583 12C17.2583 9.09587 14.9041 6.74164 12 6.74164Z" fill="white"/>
<path d="M18.6949 6.53389C18.6949 7.21254 18.1447 7.76267 17.466 7.76267C16.7874 7.76267 16.2373 7.21254 16.2373 6.53389C16.2373 5.85524 16.7874 5.30511 17.466 5.30511C18.1447 5.30511 18.6949 5.85524 18.6949 6.53389Z" fill="white"/>
</svg>
