<svg xmlns:xlink="http://www.w3.org/1999/xlink" preserveAspectRatio="xMidYMid meet" data-bbox="44.728 25.528 502.907 480.912" overflow="visible" viewBox="44.728 25.528 502.907 480.912" xmlns="http://www.w3.org/2000/svg" data-type="color" role="presentation" aria-hidden="true" width="502.907"  height="480.912" >
    <g>
        <path d="M367.33 60.6c1.3-1.59 2.64-3.17 4.01-4.71 4.94-5.54 10.35-10.66 16.33-15.06 6.54-4.81 13.69-8.7 21.39-11.34 7.96-2.73 16.28-4.02 24.69-3.96 5.38.04 10.74.76 15.96 2 5.37 1.28 10.61 3.11 15.65 5.36 5.13 2.28 10.05 4.99 14.75 8.06 4.28 2.79 8.37 5.89 12.18 9.29 2.63 1.83 5.18 3.78 7.63 5.86 2.87 2.44 5.61 5.03 8.22 7.75 3.56 3.71 6.88 7.66 9.94 11.77 3.17 4.25 6.09 8.67 8.81 13.32l.19.32c3.78 6.47 7.09 13.32 9.91 20.35 2.77 6.93 5.07 14.08 6.75 21.36.35 1.52.67 3.05.94 4.58.22 1.24.4 2.49.56 3.74.67 3.12 1.19 6.27 1.58 9.44.43 3.53.69 7.08.78 10.62.09 3.52.01 7.04-.29 10.54-.29 3.37-.79 6.74-1.58 10.03-.69 2.85-1.73 5.61-3.14 8.2a31.416 31.416 0 0 1-5.56 7.4 30.522 30.522 0 0 1-5.88 4.49 29.236 29.236 0 0 1-6.9 2.95c-2.37.68-4.83 1.05-7.3 1.11l-5.77 3.91-.52 6.01c-.73 8.39-6.02 15.97-13.67 19.47-3.81 1.86-7.72 3.51-11.67 5.03-4.45 1.71-8.96 3.25-13.54 4.6-1.04.3-2.09.61-3.14.89 1.32 5.47 2.7 10.92 4.16 16.36 2.91 10.85 6.14 21.63 9.97 32.21l1.32 3.64c4.41 12.15 8.96 24.25 12.33 36.75 2.94 10.94 4.48 22.29 4.32 33.64-.16 11.19-1.97 22.27-5.38 32.93-3.46 10.81-8.51 21.02-14.81 30.45-6.54 9.75-14.38 18.61-23.11 26.45-11.17 10.04-23.68 18.41-37.08 25.15-13.01 6.54-26.76 11.53-40.83 15.24-13.75 3.62-27.8 6.04-41.93 7.55-13.72 1.47-27.52 2.09-41.32 2.09-13.79 0-27.59-.62-41.31-2.09-14.14-1.51-28.19-3.92-41.93-7.55-1.9-.5-3.79-1.03-5.68-1.57-1.12-.32-2.23-.65-3.34-.99-1.78-.3-3.5-.86-5.11-1.64-11.12-3.7-21.95-8.31-32.24-13.94-11.32-6.2-21.94-13.61-31.54-22.24-8.73-7.85-16.58-16.7-23.11-26.45-6.31-9.42-11.36-19.64-14.82-30.45-3.4-10.66-5.22-21.74-5.38-32.92-.17-11.35 1.38-22.7 4.32-33.65 3.36-12.47 7.87-24.54 12.38-36.88.51-1.31.88-2.43 1.28-3.53 3.89-10.66 7.13-21.56 10.06-32.51 1.44-5.41 2.81-10.83 4.12-16.27-10.53-2.49-20.89-5.92-30.64-10.64-9.45-4.57-18.35-10.37-25.91-17.7-8.44-8.17-14.89-17.9-18.72-29.03-3.85-11.2-4.74-22.95-3.39-34.67.2-1.73.46-3.44.75-5.15.23-1.36.49-2.71.77-4.04.19-1.71.42-3.43.71-5.13.36-2.16.8-4.31 1.29-6.45 2.6-11.22 6.63-22.19 11.73-32.52 5.03-10.19 11.19-19.91 18.51-28.62 6.87-8.18 14.81-15.51 23.78-21.3 7.85-5.07 16.41-8.9 25.5-11.08 6.02-1.45 11.41-.98 17.16 1.28l13.55 5.34.65-1.31c5.52-11.35 18.07-15.93 29.65-10.98 4.96 2.13 9.5 4.78 13.92 7.88 4.55 3.2 8.8 6.81 12.74 10.73 3.27 3.23 6.32 6.66 9.22 10.21 4.49-1.79 9.09-3.32 13.74-4.62 9-2.5 18.23-4.12 27.52-5.12 9.89-1.07 19.83-1.47 29.77-1.47 9.94 0 19.89.39 29.78 1.47 9.29 1 18.52 2.62 27.52 5.12 4.67 1.32 9.26 2.85 13.75 4.64z" fill="#FFFFFF" fill-rule="evenodd" data-color="1"></path>
        <path d="M372.87 82.67c3.55-5.26 7.38-10.34 11.6-15.06 4.12-4.62 8.63-8.93 13.63-12.6 5.1-3.76 10.66-6.81 16.66-8.87 6.11-2.09 12.43-3.05 18.87-3 4.04.02 8.08.58 12.01 1.52 4.31 1.03 8.53 2.51 12.57 4.31 4.26 1.9 8.37 4.16 12.26 6.71 3.85 2.51 7.54 5.34 10.91 8.42 2.46 1.66 4.85 3.48 7.16 5.42 2.41 2.04 4.71 4.23 6.9 6.51 3.05 3.19 5.9 6.58 8.54 10.11 2.77 3.72 5.33 7.59 7.68 11.59l.19.33c3.38 5.79 6.32 11.85 8.81 18.08 2.44 6.09 4.46 12.38 5.94 18.78.28 1.22.54 2.45.76 3.69.21 1.22.39 2.43.53 3.63.63 2.82 1.12 5.72 1.47 8.62.36 2.96.59 5.95.66 8.93.07 2.86.01 5.74-.24 8.59-.21 2.49-.57 4.99-1.16 7.42-.33 1.37-.83 2.69-1.5 3.93-.65 1.19-1.46 2.29-2.42 3.23a12.527 12.527 0 0 1-5.27 3.09c-.96.27-1.97.42-2.97.44-1 .01-2.01-.1-2.99-.34-.31-.07-.61-.15-.92-.26l-.09-.03-18.72 12.67.12.3c.12.3.2.61.23.93.05.35.06.69.04 1.04l-1.01 11.69c-.18 2.1-1.62 4.2-3.58 5.03-3.45 1.69-6.95 3.17-10.56 4.56-4 1.54-8.06 2.91-12.17 4.13a162.8 162.8 0 0 1-10.7 2.74c-2.86.63-5.74 1.17-8.65 1.61 2.57 11.5 5.28 22.97 8.34 34.35 3.04 11.33 6.39 22.63 10.43 33.65l1.32 3.64c4.24 11.6 8.66 23.39 11.87 35.32 2.52 9.38 3.86 19.09 3.72 28.81a95.96 95.96 0 0 1-4.54 27.82l-.02.06c-2.95 9.21-7.27 17.91-12.65 25.96-5.72 8.54-12.61 16.28-20.25 23.16-10.01 8.99-21.21 16.47-33.23 22.52-11.91 6-24.52 10.55-37.4 13.94-12.88 3.4-26.08 5.65-39.32 7.06-13.09 1.4-26.27 1.99-39.45 1.99-13.17 0-26.34-.59-39.44-1.99-13.25-1.42-26.43-3.67-39.32-7.06-1.77-.47-3.53-.96-5.29-1.47-1.58-.45-3.15-.94-4.71-1.43-.51.09-1.02-.08-1.39-.44-10.71-3.46-21.13-7.82-31.01-13.23-10.14-5.55-19.63-12.17-28.22-19.9-7.64-6.87-14.53-14.62-20.26-23.16-5.4-8.06-9.72-16.78-12.67-26.02a95.85 95.85 0 0 1-4.55-27.81c-.15-9.72 1.2-19.44 3.72-28.82 3.2-11.89 7.6-23.63 11.82-35.2.49-1.25.92-2.52 1.37-3.77 4.06-11.14 7.47-22.55 10.52-34 3.08-11.5 5.81-23.1 8.41-34.72-2.38-.33-4.74-.7-7.1-1.12-2.82-.49-5.63-1.06-8.41-1.68-9.85-2.23-19.65-5.35-28.76-9.75-7.75-3.74-15.12-8.49-21.33-14.49-6.45-6.24-11.39-13.6-14.32-22.11-2.99-8.71-3.6-17.84-2.55-26.94.16-1.41.36-2.81.61-4.2.24-1.42.52-2.84.83-4.22.16-1.67.39-3.38.67-5.06.3-1.79.66-3.58 1.07-5.35 2.29-9.87 5.89-19.62 10.37-28.7 4.4-8.91 9.81-17.47 16.21-25.09 5.73-6.82 12.35-12.99 19.85-17.84 6.18-3.99 12.89-7.03 20.06-8.75 2.52-.6 4.24-.39 6.6.54l28.71 11.33 7.76-15.96c1.4-2.87 3.93-3.78 6.91-2.5 3.9 1.67 7.27 3.68 10.75 6.11 3.74 2.62 7.21 5.6 10.46 8.81 3.08 3.06 5.96 6.33 8.68 9.72 2.6 3.26 5.05 6.63 7.38 10.08 3.53-1.97 7.18-3.72 10.93-5.27 4.26-1.75 8.63-3.24 13.07-4.47 8.07-2.24 16.37-3.68 24.7-4.58 9.25-1 18.58-1.36 27.88-1.36 9.31 0 18.64.36 27.88 1.36 8.33.9 16.63 2.33 24.71 4.58 4.44 1.24 8.81 2.72 13.06 4.47 3.74 1.57 7.39 3.32 10.93 5.29zm-52.11 108.47c-.38.47-.3 1.16.17 1.56 3.73 3.16 7.38 6.42 10.96 9.77 3.32 3.09 6.58 6.26 9.78 9.46-2.81 2.62-5.68 5.11-8.76 7.58-3.36 2.69-6.96 5.33-10.95 8l-.18.14c-.47.41-.5 1.14-.09 1.59 1.51 1.67 4.27 4.2 7.28 6.59 2.43 1.93 5.03 3.77 7.32 4.99.36.2.82.19 1.18-.07 3.64-2.54 6.99-5.01 10.1-7.47 2.84-2.24 5.53-4.49 8.13-6.79 5.56 5.97 11.1 12.07 16.56 18.1l2.2 2.41c.38.46 1.06.55 1.54.19 1.85-1.37 3.43-2.77 4.8-4.27 1.35-1.47 2.48-3.05 3.45-4.77.27-.39.27-.94-.04-1.34l-1.73-2.2c-5-6.33-10.03-12.72-15.38-19.25 2.07-2.2 4.12-4.51 6.21-6.93 2.32-2.69 4.65-5.51 7.04-8.5.24-.3.33-.72.19-1.1-.8-2.18-2.44-4.81-4.41-7.3-2.06-2.61-4.5-5.1-6.74-6.83a1.12 1.12 0 0 0-1.54.1l-5.85 6.26c-2.88 3.1-5.58 6-8.2 8.74-2.89-3.24-5.85-6.44-8.88-9.58-3.34-3.48-6.8-6.92-10.41-10.31-.36-.33-.89-.41-1.34-.16-2.51 1.43-4.69 3.01-6.71 4.87-1.98 1.83-3.83 3.96-5.7 6.52zm-14.45 104c-1.5-.29-3.11-.5-4.83-.65-1.66-.15-3.43-.23-5.29-.23-1.87 0-3.63.08-5.3.23-1.71.15-3.32.36-4.82.65-1.7.32-2.8 1.97-2.48 3.66.33 1.69 1.96 2.8 3.66 2.48 1.25-.24 2.66-.43 4.17-.56 1.47-.13 3.06-.2 4.78-.2 1.71 0 3.3.07 4.77.2 1.51.13 2.91.32 4.17.56a3.14 3.14 0 0 0 3.66-2.48c.31-1.7-.8-3.34-2.49-3.66zm158.2 26.01-6.47 1.1c5.48 8.07 10.19 16.64 14.19 25.54-.49-2.65-1.09-5.26-1.79-7.85-1.7-6.33-3.77-12.59-5.93-18.79zm-13.94-40.53-27.97 5.27c10.12 7.18 19.18 15.64 27.08 25.22.55.66 1.09 1.32 1.62 1.99l9.74-1.66-2.18-5.98c-.46-1.23-.91-2.48-1.36-3.72-2.54-6.95-4.82-14.02-6.93-21.12zm17.63-77.24 7.37-20.78-41.45-12.98a354.9 354.9 0 0 1 1.5 5.83c.7 2.88 1.36 5.77 1.98 8.69 1.46 7.94 3.32 15.79 4.99 23.69 3.7-.43 7.4-.91 11.09-1.5 3.84-.6 7.67-1.32 11.47-2.19l3.05-.76zm42.93-41.86 5.5 2.22c.5-1.41.91-2.83 1.24-4.27.47-2 .79-4.04.96-6.09v-.03c.23-2.66.22-5.32.02-7.98-.23-2.82-.68-5.61-1.32-8.38-1.28-5.53-3-10.98-5.05-16.27-1.95-5-4.21-9.88-6.76-14.6l-6.16 2.58 11.57 52.82zM317.75 133.3l-4.71-52.67c-1.53-.69-3.06-1.36-4.6-2.01-1.77-.76-3.55-1.5-5.34-2.24l-3.22-.05-3.59-.01c-2.51-.01-5.02.03-7.53.08-1.57.04-3.16.09-4.73.16l32.29 55.88 1.43.86zM118.26 79.65l-2.59-7.36a73.165 73.165 0 0 0-7.44 5.92c-3.05 2.76-5.9 5.75-8.54 8.91C93.91 94 89 101.71 84.99 109.74c-3.7 7.38-6.73 15.18-8.9 23.14l3.49-1.3 21.83-34.28a1.6 1.6 0 0 1 .44-1.26l16.41-16.39zm-8.28 107.85-23.75-3.81c3.12 3.06 6.64 5.7 10.35 8 5.12 3.16 10.67 5.7 16.31 7.77l-2.91-11.96zm-31.85-14.51 33.78 5.41 8.37-9.87-38.36-27.89-8.11 3.01c-.73 5.23-.86 10.55-.09 15.78.71 4.75 2.16 9.31 4.41 13.56zm26.76-63.85-15.98 25.08 29.82 21.68-13.84-46.76zm332.37-26.88-.18-19.14c-3.33.66-6.58 1.68-9.69 3.04-3.75 1.64-7.26 3.73-10.54 6.14a65.977 65.977 0 0 0-4.52 3.64c-1.26 1.1-2.49 2.24-3.67 3.43l6.35 16.18 22.25-13.29zm9.09-20.04.18 19.51 47.63 19.17 6.79-2.84c-1.68-2.6-3.45-5.12-5.33-7.57-2.15-2.78-4.44-5.47-6.88-8-5.83-6.08-12.59-11.41-20.21-15.08-6.82-3.29-14.11-5.13-21.7-5.18h-.48v-.01zm-38.55 40.45-6.13-15.6c-1.24 1.53-2.44 3.07-3.62 4.64-1.52 2.04-3 4.13-4.41 6.23 2.15 2 4.23 4.09 6.24 6.23 1.66 1.78 3.28 3.6 4.85 5.47l3.07-6.97zm-234.65 28.81-15.8-35.18-32.42-10.13-13.23 13.21 19.02 64.26 30.12-2.27c1.25-4.05 2.63-8.06 4.15-12.02 1.65-4.29 3.47-8.51 5.49-12.65.49-.98.98-1.98 1.48-2.96l1.19-2.26zm25.81-33.54c-1.81-2.69-3.69-5.34-5.67-7.92-2.08-2.71-4.27-5.35-6.59-7.86-1.97-2.13-4.04-4.19-6.23-6.1a65.669 65.669 0 0 0-5.08-4.04l-9.75 20.05 13.32 29.65c2.63-4.02 5.46-7.89 8.53-11.6l.05-.06c3.53-4.29 7.35-8.33 11.42-12.12zM421.4 159.6c-1.14 1.71-2 3.42-2.48 5.5-.97 4.12-.39 9.26.22 13.4.62 4.24 1.24 8.49 1.78 12.74.44 3.58.84 7.17 1.11 10.78 2.77 2.42 5.5 4.91 8.15 7.47 1.4 1.35 2.77 2.71 4.13 4.1l-5.8-27.52c-1.06-4.99-2.24-9.95-3.58-14.86-1.08-3.91-2.24-7.78-3.53-11.61zm-17.42 115.07c-.14-.68-.26-1.38-.37-2.07a46.5 46.5 0 0 1-.52-5.77c-.12-3.87.24-7.75.92-11.57.81-4.57 2.07-9.09 3.58-13.49 1.75-5.11 3.21-10.32 4.17-15.65a84.44 84.44 0 0 0 1.32-14.1c.01-1.02 0-2.05-.01-3.07l-.09-2.45-2.12-1.77c-5.56-4.67-11.36-9.07-17.21-13.37-5.89-4.33-11.87-8.54-17.87-12.7l-61.12-36.41-45.09 82.06c5.95 3.23 11.58 7.1 17.01 11.14 7.82 5.8 15.39 12.02 22.89 18.22l5.52.41c14.14 1.05 27.93 2.26 41.89 4.96 16.32 3.16 32.23 8.12 47.1 15.63zm7.85-81.13c-.19-1.52-.39-3.03-.6-4.54-.41-3.05-.86-6.1-1.31-9.15-.21-1.46-.4-2.92-.55-4.39-.07-.68-.13-1.36-.18-2.04l-19.29 3.8c3.76 2.67 7.49 5.36 11.19 8.11 3.61 2.67 7.2 5.4 10.74 8.21zm.68-37.37c.39-.64.8-1.27 1.23-1.89 1.08-1.54 2.24-3.02 3.4-4.5l.41-.53c-.54-1.28-1.08-2.57-1.65-3.85-.69-1.54-1.4-3.1-2.15-4.62-3.45-7.1-7.53-13.88-12.25-20.21-4.98-6.68-10.67-12.76-16.91-18.29l-.24-.22c-5.43-4.8-11.38-8.87-17.79-12.25-6.42-3.39-13.18-5.98-20.17-7.92-4.01-1.13-8.07-2.02-12.18-2.75-1.35-.23-2.7-.45-4.06-.65 6.8 3.47 13.46 7.25 19.9 11.38 8.32 5.34 16.24 11.25 23.64 17.81 8.04 7.12 15.39 14.93 22.03 23.38 6.22 7.93 11.78 16.35 16.79 25.11zM193.24 426.46c10.31 4.71 21.26 8.16 32.29 10.72 12.91 3 26.15 4.81 39.36 5.75 14.28 1 28.68.98 42.96.04 13.7-.91 27.4-2.69 40.84-5.46.6-5.71 1.15-11.42 1.62-17.14.47-5.67.85-11.37 1.14-17.04.27-5.52.47-11.04.57-16.56.1-5.3.12-10.61.08-15.91-11.12 1.31-22.27 2.41-33.45 3.15-10.81.72-21.63 1.1-32.45 1.03-10.88-.07-21.73-.59-32.57-1.59-11.09-1.01-22.12-2.52-33.1-4.4l-34.36 20.98c.61 6.48 1.5 12.92 2.75 19.31 1.14 5.77 2.57 11.49 4.32 17.12zm-44.5-170.72c.12-.16.24-.33.36-.5 1.59-2.19 3.1-4.46 4.51-6.77 2.66-4.37 4.94-8.94 6.77-13.71a81.413 81.413 0 0 0 4.35-15.82l-1.27-29.99c-.84 3.97-1.67 7.94-2.51 11.91-2.16 10.26-4.31 20.53-6.58 30.78-1.77 8.04-3.63 16.1-5.63 24.1zm50.6 208.47c-2.2-4.19-4.32-8.41-6.31-12.7a187.23 187.23 0 0 1-6.69-16.34 170.1 170.1 0 0 1-6-21.36c-1.66-7.88-2.78-15.86-3.51-23.89-6.7-5.44-13.36-11.06-19.51-17.14-5.55-5.5-10.6-11.37-14.88-17.91-3.65-5.58-6.61-11.5-9.01-17.71-2.1-5.46-3.75-11.09-5.08-16.78-.9 2.54-1.77 5.11-2.62 7.67-1.29 3.93-2.52 7.89-3.6 11.9-2.3 8.55-3.54 17.39-3.41 26.24.1 8.55 1.48 17 4.09 25.15l.01.06c2.7 8.42 6.66 16.36 11.59 23.7 5.28 7.87 11.66 15 18.7 21.34 7.25 6.53 15.2 12.21 23.65 17.08 7.24 4.14 14.81 7.69 22.58 10.69zm205.43-178.42c-15.13-8.46-31.58-13.94-48.55-17.36-13.95-2.8-27.74-3.99-41.9-5.06l-6.43-.49a98.906 98.906 0 0 0-32.13 11.74c-9.97 5.78-18.81 13.29-26.17 22.16-7.32 8.81-13.04 18.79-17.17 29.47-4.23 10.91-6.74 22.4-7.82 34.04 10.17 1.7 20.41 3.05 30.68 3.98 10.31.92 20.63 1.41 30.97 1.47 10.98.07 21.97-.35 32.93-1.1 11.93-.82 23.84-2.05 35.72-3.5 6.27-4.82 12.33-9.93 17.93-15.51 5.44-5.39 10.42-11.22 14.75-17.53 4.26-6.21 7.81-12.82 10.65-19.79 2.95-7.27 5.09-14.82 6.54-22.52zm-108.48 36.26c3.08 0 6.77-.95 9.67-1.92 3.36-1.12 6.68-2.63 9.68-4.52 2.65-1.67 5.14-3.68 7.17-6.06 1.82-2.14 3.27-4.55 4.1-7.24.24-.78.43-1.59.57-2.4.12-.77.2-1.55.2-2.32v-.1c0-1.85-.34-3.64-1.03-5.33-.7-1.73-1.73-3.28-3.01-4.64-1.32-1.4-2.87-2.56-4.52-3.52-1.86-1.07-3.86-1.9-5.9-2.54-2.54-.79-5.16-1.31-7.8-1.65-3.02-.39-6.07-.55-9.12-.55-3.03 0-6.08.17-9.07.55h-.04c-2.64.34-5.27.86-7.8 1.65-2.04.65-4.04 1.47-5.91 2.54-1.66.95-3.2 2.12-4.51 3.52-1.28 1.36-2.32 2.91-3.02 4.63-.69 1.7-1.03 3.49-1.03 5.33 0 .8.07 1.6.2 2.4.13.83.33 1.64.57 2.44.84 2.69 2.27 5.1 4.09 7.24 2.04 2.39 4.53 4.39 7.18 6.06 3 1.9 6.32 3.41 9.68 4.53 2.88.95 6.58 1.9 9.65 1.9zm-14.4-14.31c2.32 1.45 4.87 2.65 7.46 3.53 2.03.69 4.78 1.47 6.93 1.47 2.16 0 4.92-.78 6.94-1.47 2.58-.88 5.14-2.07 7.46-3.53 1.76-1.11 3.47-2.44 4.85-4.01 1.09-1.22 1.99-2.63 2.48-4.2.12-.36.21-.72.27-1.09.05-.32.07-.65.07-.98v-.07c0-.61-.14-1.22-.38-1.79a5.67 5.67 0 0 0-1.14-1.72c-.74-.78-1.64-1.42-2.57-1.95-1.21-.67-2.53-1.19-3.85-1.61-2.06-.64-4.2-1.05-6.33-1.32-2.59-.33-5.21-.44-7.82-.44-2.6 0-5.22.12-7.81.44-2.13.27-4.28.68-6.33 1.32-1.32.42-2.64.94-3.85 1.61-.92.52-1.83 1.17-2.57 1.95-.47.5-.87 1.08-1.14 1.72-.24.6-.36 1.22-.36 1.86 0 .33.02.67.07 1 .06.37.15.73.26 1.07.49 1.57 1.39 2.98 2.47 4.2 1.42 1.58 3.13 2.9 4.89 4.01zm79.47 60.13c.08 6.08.08 12.16-.03 18.24a520.7 520.7 0 0 1-.59 17.66c-.3 5.91-.71 11.82-1.19 17.7-.5 6.07-1.1 12.13-1.73 18.19l27.1 27.54c9.81-3.26 19.35-7.31 28.42-12.3 9.37-5.16 18.16-11.3 26.12-18.46 7.05-6.32 13.41-13.46 18.7-21.33 4.93-7.36 8.9-15.32 11.6-23.76l.02-.05a87.598 87.598 0 0 0 3.28-14.48c-5.73-19.33-14.13-37.87-26.21-54.08-9.35-12.53-20.59-23.21-33.64-31.8-1.6 7.5-3.83 14.83-6.79 21.91-3.01 7.21-6.74 14.05-11.16 20.5-4.57 6.67-9.81 12.82-15.53 18.53-5.75 5.74-11.94 11.02-18.37 15.99zm52.7 77.24c1.79-1.07 3.54-2.18 5.28-3.33 1.7-1.13 3.37-2.3 5.02-3.51 1.69-1.24 3.35-2.52 4.98-3.85 1.59-1.31 3.17-2.64 4.7-4.02 1.53-1.37 3.02-2.78 4.47-4.23 1.42-1.4 2.79-2.85 4.12-4.34l.74-.81c1.87-2.06 3.39-3.87 5-6.15.72-1 1-2.24.8-3.46-.21-1.21-.89-2.3-1.89-3.02-1.01-.72-2.25-1-3.47-.79-1.21.2-2.29.88-3.01 1.89-1.35 1.89-2.6 3.38-4.15 5.09l-.93 1.03c-1.24 1.36-2.5 2.69-3.8 4-1.34 1.33-2.7 2.62-4.11 3.87-1.43 1.29-2.89 2.54-4.38 3.75-1.49 1.22-3.02 2.4-4.57 3.54-1.53 1.13-3.1 2.22-4.69 3.28-1.59 1.06-3.21 2.09-4.85 3.07l-.02.02a4.656 4.656 0 0 0-2.13 2.85c-.3 1.19-.11 2.43.49 3.48l.02.04a4.68 4.68 0 0 0 2.86 2.12c1.21.29 2.46.12 3.52-.52zm43.42-44.97.04-.1c.42-.87.84-1.75 1.23-2.62l.02-.05c.4-.87.77-1.74 1.12-2.6.36-.88.7-1.78 1.03-2.67.32-.9.63-1.8.92-2.69l.01-.03a4.66 4.66 0 0 0-.29-3.55c-.55-1.09-1.5-1.9-2.65-2.29l-.05-.02a4.628 4.628 0 0 0-3.43.23l-.1.05a4.61 4.61 0 0 0-2.33 2.72c-.25.78-.52 1.54-.8 2.31l-.02.04c-.3.81-.61 1.62-.94 2.43-.32.8-.65 1.59-1 2.38-.33.74-.68 1.48-1.03 2.21l-.1.2a4.62 4.62 0 0 0-.19 3.37l.02.05a4.62 4.62 0 0 0 2.25 2.62l.17.1c1.09.5 2.34.57 3.48.18a4.7 4.7 0 0 0 2.64-2.27zM171.5 158.66l2.38 56.85 42.12-1.56c8.62 0 17.43.17 25.98 1.36 6.65.92 12.95 2.47 19.16 4.99l46.41-84.45-33.89-58.66c-4.63.4-9.25.95-13.85 1.71-4.59.77-9.15 1.75-13.64 3-7 1.95-13.79 4.55-20.21 7.95-6.45 3.41-12.41 7.55-17.89 12.36-6.27 5.51-11.96 11.63-16.96 18.32-4.74 6.34-8.81 13.14-12.28 20.26-1.43 2.94-2.75 5.92-3.99 8.95-1.19 2.93-2.3 5.91-3.34 8.92zm259.46.23 50.07 15.67 20.85-11.71-10.81-49.36-61.87 40.23.83 2.38.93 2.79z" fill="#040303" fill-rule="evenodd" data-color="2"></path>
    </g>
</svg>