<svg width="22" height="18" viewBox="0 0 22 18" fill="none" xmlns="http://www.w3.org/2000/svg">
<g clip-path="url(#clip0_334_170)">
<path d="M19.5838 4.52559C19.597 4.71706 19.597 4.90853 19.597 5.10177C19.597 10.9897 15.1147 17.7803 6.91849 17.7803V17.7768C4.49731 17.7803 2.12643 17.0868 0.0881958 15.7791C0.440255 15.8215 0.794078 15.8427 1.14878 15.8435C3.15525 15.8453 5.10437 15.1721 6.6829 13.9324C4.77614 13.8962 3.10408 12.6529 2.51996 10.8379C3.1879 10.9668 3.87614 10.9403 4.53172 10.7612C2.4529 10.3412 0.957313 8.51471 0.957313 6.39353C0.957313 6.37412 0.957313 6.35559 0.957313 6.33706C1.57673 6.68206 2.27025 6.87353 2.97967 6.89471C1.02173 5.58618 0.418196 2.98148 1.60055 0.945005C3.8629 3.72883 7.20084 5.42118 10.7841 5.6003C10.425 4.05265 10.9155 2.43089 12.0732 1.34295C13.8679 -0.344113 16.6905 -0.257643 18.3776 1.53618C19.3755 1.33942 20.332 0.97324 21.2073 0.454416C20.8747 1.48589 20.1785 2.36206 19.2485 2.91883C20.1317 2.81471 20.9947 2.57824 21.8073 2.21736C21.2091 3.11383 20.4555 3.89471 19.5838 4.52559Z" fill="white"/>
</g>
<defs>
<clipPath id="clip0_334_170">
<rect width="21.8824" height="18" fill="white"/>
</clipPath>
</defs>
</svg>
